<svg width="467" height="141" viewBox="0 0 467 141" fill="none" xmlns="http://www.w3.org/2000/svg">
<path d="M450.137 90.0816L450.264 83.3049C448.606 84.9363 445.671 85.8148 439.547 86.9442C430.107 88.7012 427.045 91.3366 427.045 96.6073C427.045 101.251 429.851 103.51 435.082 103.51C443.63 103.51 450.009 97.3603 450.137 90.0816ZM466.85 113.549H451.412C450.902 112.043 450.519 109.91 450.392 108.027C446.437 112.294 439.803 115.181 431.382 115.181C417.093 115.181 410.459 108.278 410.459 98.2388C410.459 80.4185 422.579 78.4106 439.292 76.1517C447.585 75.0222 449.881 73.3908 449.881 69.124C449.881 65.1082 445.799 62.7238 439.292 62.7238C431.765 62.7238 428.703 66.3631 427.938 71.8849H412.5C412.756 59.0844 419.9 50.1743 440.058 50.1743C459.96 50.1743 466.85 58.9589 466.85 74.5203V113.549Z" fill="#1057FE"/>
<path d="M404.848 113.549H388.135V76.1517C388.135 66.6141 385.329 63.9787 377.419 63.9787C368.743 63.9787 364.533 68.7475 364.533 78.1596V113.549H347.948V51.8057H363.768V60.8414C367.595 53.9392 373.974 50.1743 384.053 50.1743C396.045 50.1743 404.848 57.3275 404.848 70.7554V113.549Z" fill="#1057FE"/>
<path d="M340.382 113.55H323.796V51.8068H340.382V113.55ZM340.382 44.4026H323.796V29.2178H340.382V44.4026Z" fill="#1057FE"/>
<path d="M317.043 113.549H300.84V76.1517C300.84 68.7475 296.885 63.4767 291.017 63.4767C284.893 63.4767 280.428 69.124 280.428 76.6537V113.549H263.842V76.4027C263.842 66.4886 261.163 63.9787 253.891 63.9787C247.257 63.9787 243.812 67.9946 243.812 76.0262V113.549H227.227V51.8057H242.792V60.8414C247.002 52.6842 252.87 50.1743 261.163 50.1743C269.711 50.1743 273.794 52.8097 278.642 59.9629C282.086 53.1862 287.7 50.1743 295.61 50.1743C308.24 50.1743 317.043 59.2099 317.043 70.7554V113.549Z" fill="#1057FE"/>
<path d="M219.951 113.55H204.259V104.891C199.921 111.919 193.414 115.181 184.739 115.181C172.236 115.181 163.433 106.02 163.433 92.4669V51.8066H180.019V89.957C180.019 97.7377 183.591 101.503 190.608 101.503C199.028 101.503 203.493 95.6043 203.493 87.4471V51.8066H219.951V113.55Z" fill="#1057FE"/>
<path d="M156.47 113.55H139.885V29.2178H156.47V113.55Z" fill="#1057FE"/>
<path d="M0 48.2347C0.000534091 21.9988 20.3771 0 46.3879 0H131.365V91.881C131.365 118.117 110.988 140.116 84.9771 140.116H9.04781C3.65699 140.116 0.000391407 135.655 0 131.057V48.2347ZM17.5945 122.525H84.9771C100.486 122.525 113.77 109.207 113.77 91.881V17.5945H46.3879C30.8792 17.5945 17.5951 30.9089 17.5945 48.2347V122.525Z" fill="#F15632"/>
<path d="M101.417 98.8408H83.9141V113.427H101.417V98.8408Z" fill="#1057FE"/>
<path d="M40.1567 113.426H57.6599V71.4167V28.8276H48.9083H40.1567V113.426Z" fill="#1057FE"/>
<path d="M57.6583 98.8408H78.0787V113.427H57.6583V98.8408Z" fill="#1057FE"/>
</svg>
