<svg width="128" height="39" viewBox="0 0 128 39" fill="none" xmlns="http://www.w3.org/2000/svg">
<path d="M122.822 24.5792L122.857 22.7301C122.404 23.1753 121.604 23.415 119.933 23.7231C117.357 24.2025 116.521 24.9216 116.521 26.3598C116.521 27.6267 117.287 28.2431 118.714 28.2431C121.047 28.2431 122.787 26.5652 122.822 24.5792ZM127.382 30.9824H123.17C123.031 30.5715 122.927 29.9894 122.892 29.4758C121.813 30.64 120.002 31.4276 117.705 31.4276C113.806 31.4276 111.996 29.5443 111.996 26.8049C111.996 21.9426 115.303 21.3947 119.863 20.7783C122.126 20.4702 122.753 20.025 122.753 18.8608C122.753 17.765 121.639 17.1144 119.863 17.1144C117.809 17.1144 116.974 18.1075 116.765 19.6141H112.553C112.623 16.1214 114.572 13.6902 120.072 13.6902C125.503 13.6902 127.382 16.0872 127.382 20.3332V30.9824Z" fill="#1057FE"/>
<path d="M110.465 30.9824H105.905V20.7783C105.905 18.1759 105.139 17.4569 102.981 17.4569C100.613 17.4569 99.4647 18.7581 99.4647 21.3262V30.9824H94.9393V14.1354H99.2558V16.6008C100.3 14.7175 102.041 13.6902 104.791 13.6902C108.063 13.6902 110.465 15.642 110.465 19.3059V30.9824Z" fill="#1057FE"/>
<path d="M92.8749 30.9824H88.3494V14.1354H92.8749V30.9824ZM92.8749 12.1151H88.3494V7.97182H92.8749V12.1151Z" fill="#1057FE"/>
<path d="M86.5068 30.9824H82.0858V20.7783C82.0858 18.7581 81.0066 17.3199 79.4053 17.3199C77.7344 17.3199 76.516 18.8608 76.516 20.9153V30.9824H71.9906V20.8468C71.9906 18.1417 71.2596 17.4569 69.2753 17.4569C67.4652 17.4569 66.5253 18.5526 66.5253 20.7441V30.9824H61.9998V14.1354H66.2468V16.6008C67.3955 14.3751 68.9968 13.6902 71.2596 13.6902C73.5919 13.6902 74.7058 14.4093 76.0287 16.3611C76.9686 14.512 78.5002 13.6902 80.6585 13.6902C84.1048 13.6902 86.5068 16.1557 86.5068 19.3059V30.9824Z" fill="#1057FE"/>
<path d="M60.0146 30.9824H55.7329V28.6197C54.5493 30.5373 52.7739 31.4276 50.4068 31.4276C46.9953 31.4276 44.5933 28.9279 44.5933 25.2298V14.1354H49.1188V24.5449C49.1188 26.6679 50.0935 27.6952 52.0081 27.6952C54.3056 27.6952 55.524 26.0858 55.524 23.8601V14.1354H60.0146V30.9824Z" fill="#1057FE"/>
<path d="M42.6935 30.9824H38.168V7.97182H42.6935V30.9824Z" fill="#1057FE"/>
<path d="M2.39999 13.161C2.39999 7.21786 6.99196 2.4 12.6565 2.4H33.443V25.0699C33.443 31.0131 28.851 35.8309 23.1865 35.8309H2.46837C2.43061 35.8309 2.39999 35.7988 2.39999 35.7592V13.161Z" stroke="#F15632" stroke-width="4.8"/>
<path d="M27.6719 26.9687H22.8961V30.9485H27.6719V26.9687Z" fill="#1057FE"/>
<path d="M10.9566 30.9485H15.7325V19.4859V7.86527H13.3446H10.9566V30.9485Z" fill="#1057FE"/>
<path d="M15.732 26.9687H21.3038V30.9485H15.732V26.9687Z" fill="#1057FE"/>
</svg>
