<svg width="29" height="35" viewBox="0 0 29 35" fill="none" xmlns="http://www.w3.org/2000/svg">
<path d="M15.5081 33.0769C15.2143 33.2879 14.8617 33.4014 14.5001 33.4014C14.1384 33.4014 13.7858 33.2879 13.492 33.0769C4.79958 26.8812 -4.42569 14.1368 4.90038 4.92772C7.46067 2.40917 10.9087 0.998423 14.5001 1C18.1002 1 21.5545 2.41304 24.0997 4.92592C33.4258 14.135 24.2005 26.8776 15.5081 33.0769Z" stroke="#F15632" stroke-width="2" stroke-linecap="round" stroke-linejoin="round"/>
<path d="M14.4956 17.2012C15.4504 17.2012 16.3661 16.8219 17.0412 16.1467C17.7164 15.4716 18.0957 14.5559 18.0957 13.6011C18.0957 12.6463 17.7164 11.7306 17.0412 11.0554C16.3661 10.3803 15.4504 10.001 14.4956 10.001C13.5407 10.001 12.625 10.3803 11.9499 11.0554C11.2747 11.7306 10.8954 12.6463 10.8954 13.6011C10.8954 14.5559 11.2747 15.4716 11.9499 16.1467C12.625 16.8219 13.5407 17.2012 14.4956 17.2012Z" stroke="#F15632" stroke-width="2" stroke-linecap="round" stroke-linejoin="round"/>
</svg>
