<svg width="399" height="120" viewBox="0 0 399 120" fill="none" xmlns="http://www.w3.org/2000/svg">
<path d="M384.716 76.9902L384.825 71.1984C383.407 72.5927 380.899 73.3435 375.666 74.3088C367.597 75.8104 364.98 78.0627 364.98 82.5675C364.98 86.536 367.379 88.4666 371.849 88.4666C379.155 88.4666 384.607 83.211 384.716 76.9902ZM399 97.047H385.806C385.37 95.76 385.043 93.9366 384.934 92.3278C381.554 95.9745 375.884 98.4414 368.687 98.4414C356.475 98.4414 350.805 92.5423 350.805 83.9618C350.805 68.7315 361.164 67.0154 375.448 65.0848C382.535 64.1195 384.498 62.7252 384.498 59.0785C384.498 55.6463 381.009 53.6084 375.448 53.6084C369.014 53.6084 366.397 56.7188 365.743 61.4381H352.55C352.768 50.498 358.874 42.8828 376.102 42.8828C393.112 42.8828 399 50.3907 399 63.6905V97.047Z" fill="#1057FE"/>
<path d="M346.01 97.047H331.726V65.0848C331.726 56.9333 329.327 54.681 322.566 54.681C315.152 54.681 311.554 58.7567 311.554 66.8009V97.047H297.379V44.2771H310.899V51.9996C314.171 46.1005 319.622 42.8828 328.236 42.8828C338.486 42.8828 346.01 48.9964 346.01 60.4728V97.047Z" fill="#1057FE"/>
<path d="M290.912 97.0476H276.737V44.2777H290.912V97.0476ZM290.912 37.9496H276.737V24.9717H290.912V37.9496Z" fill="#1057FE"/>
<path d="M270.966 97.047H257.118V65.0848C257.118 58.7567 253.738 54.2519 248.722 54.2519C243.488 54.2519 239.672 59.0785 239.672 65.5138V97.047H225.497V65.2993C225.497 56.8261 223.207 54.681 216.992 54.681C211.322 54.681 208.378 58.1132 208.378 64.9775V97.047H194.203V44.2771H207.506V51.9996C211.104 45.0279 216.12 42.8828 223.207 42.8828C230.513 42.8828 234.002 45.1352 238.145 51.2488C241.089 45.457 245.887 42.8828 252.647 42.8828C263.442 42.8828 270.966 50.6052 270.966 60.4728V97.047Z" fill="#1057FE"/>
<path d="M187.984 97.0472H174.573V89.6466C170.865 95.6529 165.304 98.4416 157.89 98.4416C147.204 98.4416 139.68 90.6119 139.68 79.0283V44.2773H153.855V76.8831C153.855 83.533 156.908 86.7507 162.906 86.7507C170.102 86.7507 173.918 81.7096 173.918 74.738V44.2773H187.984V97.0472Z" fill="#1057FE"/>
<path d="M133.73 97.0476H119.555V24.9717H133.73V97.0476Z" fill="#1057FE"/>
<path d="M0 41.2245C0.000456469 18.8016 17.4156 0 39.6461 0H112.273V78.5275C112.273 100.951 94.8577 119.752 72.6269 119.752H7.73284C3.1255 119.752 0.000334522 115.94 0 112.01V41.2245ZM15.0374 104.718H72.6269C85.882 104.718 97.2356 93.3357 97.2356 78.5275V15.0374H39.6461C26.3913 15.0374 15.0379 26.4167 15.0374 41.2245V104.718Z" fill="#F15632"/>
<path d="M86.6778 84.4766H71.7185V96.9427H86.6778V84.4766Z" fill="#1057FE"/>
<path d="M34.3206 96.9412H49.2799V61.037V24.6377H41.8002H34.3206V96.9412Z" fill="#1057FE"/>
<path d="M49.2786 84.4766H66.7311V96.9427H49.2786V84.4766Z" fill="#1057FE"/>
</svg>
